<?xml version="1.0" encoding="iso-8859-1"?>
<!-- Uploaded to: SVG Repo, www.svgrepo.com, Generator: SVG Repo Mixer Tools -->
<svg height="800px" width="800px" version="1.1" id="Layer_1" xmlns="http://www.w3.org/2000/svg" xmlns:xlink="http://www.w3.org/1999/xlink" 
	 viewBox="0 0 512.001 512.001" xml:space="preserve">
<path style="fill:#CCA400;" d="M452.596,127.908v-19.825c0-6.915-5.606-12.522-12.522-12.522H124.938v81.846h327.658v-49.5H452.596z
	"/>
<path style="fill:#FFE477;" d="M107.203,80.955h52.869c7.222,0,13.804,4.142,16.929,10.652l14.814,30.861
	c3.125,6.51,9.707,10.652,16.929,10.652h284.481c10.37,0,18.777,8.407,18.777,18.777v260.371c0,10.37-8.407,18.777-18.777,18.777
	H19.564c-10.37,0-18.777-8.407-18.777-18.777V99.734c0-10.37,8.407-18.777,18.777-18.777h87.639V80.955z"/>
<g style="opacity:0.26;">
	<path style="fill:#CCA400;" d="M492.438,133.12h-27.839v232.531c0,10.37-8.407,18.777-18.778,18.777H0v27.839
		c0,10.37,8.407,18.777,18.778,18.777h473.66c10.37,0,18.777-8.407,18.777-18.777v-260.37
		C511.215,141.527,502.809,133.12,492.438,133.12z"/>
	<path style="fill:#CCA400;" d="M161.34,86.503h11.26c-3.467-3.488-8.229-5.548-13.314-5.548h-11.26
		C151.493,84.443,156.254,86.503,161.34,86.503z"/>
</g>
<g>
	<polygon style="fill:#CCA400;" points="258.18,226.872 314.535,226.872 314.535,251.266 361.461,234.506 361.461,319.987 
		314.535,303.228 314.535,327.622 173.499,327.622 173.499,226.872 202.191,226.872 	"/>
	<path style="fill:#CCA400;" d="M41.473,230.891c-4.322,0-7.825-3.502-7.825-7.825v-91.318c0-4.322,3.502-7.825,7.825-7.825
		s7.825,3.502,7.825,7.825v91.318C49.298,227.389,45.796,230.891,41.473,230.891z"/>
</g>
</svg>